<?xml version="1.0" encoding="utf-8"?>
<!-- Generator: Adobe Illustrator 22.1.0, SVG Export Plug-In . SVG Version: 6.00 Build 0)  -->
<svg version="1.1" id="Layer_1" xmlns="http://www.w3.org/2000/svg" xmlns:xlink="http://www.w3.org/1999/xlink" x="0px" y="0px"
	 viewBox="0 0 350 281" style="enable-background:new 0 0 350 281;" xml:space="preserve">
<style type="text/css">
	.st0{clip-path:url(#SVGID_2_);}
	.st1{fill:#086CA0;}
</style>
<g>
	<g>
		<defs>
			<path id="SVGID_1_" d="M248.7,0l-168,4.8l6.2,215.3l60.5,37.4c0.6,0.4,1.3,0.2,1.7-0.4l3.2-5.1c0.2-0.2,0.4-0.5,0.6-0.7
				l19.4-21.3c1.3-1.5,3.6-1.6,4.9,0l24.9,29l46.8-72.2L248.7,0z"/>
		</defs>
		<clipPath id="SVGID_2_">
			<use xlink:href="#SVGID_1_"  style="overflow:visible;"/>
		</clipPath>
		<g class="st0">
			<path class="st1" d="M243.5,82.5c-0.4-1.1-0.8-2.2-1.2-3.2c-0.8-1.9-1.5-3.9-1.9-6c-0.3-1.5-0.5-3-0.7-4.5
				c-0.1-0.3-0.1-0.7-0.2-1c-0.2-1.1-0.5-2.2-0.7-3.4c-0.1-0.4-0.2-0.9-0.4-1.3V63c-0.2-0.7-0.4-1.3-0.6-2c-0.1-0.3-0.3-0.6-0.5-0.9
				c-0.7-1.2-1.7-2.6-1.9-4.1l0,0c0,0,0,0,0-0.1c0-0.2,0-0.4,0-0.6c0,0,0,0,0-0.1s0-0.2,0-0.3s0-0.1,0.1-0.2
				c0.1-0.1,0.1-0.3,0.2-0.4c0,0,0.1,0,0.1-0.1c0.1-0.1,0.2-0.3,0.4-0.4l0,0c0.4-0.7,0.4-1-0.2-1.6c-0.5-0.5-1-0.9-1.5-1.4
				c-0.7-0.7-1.7-1.4-2.2-2.3l-0.1-0.1v-0.1c-0.1-0.2-0.1-0.3-0.2-0.5c-0.2-0.8,0.1-1.5-0.3-2.3c0-0.1-0.1-0.2-0.2-0.3
				c-0.1-0.1-0.1-0.1-0.2-0.2c-0.4-0.2-0.9-0.3-1.2-0.5c-0.8-0.5-1.6-1-2.4-1.5c-0.2-0.1-0.5-0.2-0.6-0.2c-0.1-0.1-0.3-0.1-0.3-0.2
				c-0.9-0.5-1.7-1.1-2.5-1.6c-1.3-0.6-2.7-1-4.1-1.5c-0.8-0.3-1.5-0.7-2-1.4l0,0c-0.2-0.1-0.3-0.2-0.5-0.3c-0.6-0.4-1.1-1-1.7-1.4
				c-0.1-0.1-0.3-0.2-0.5-0.3c-0.2,0-0.3-0.1-0.5-0.3c-0.1,0-0.1-0.1-0.2-0.1c0-0.1,0.1-0.1,0.1-0.2c0-0.1,0-0.1,0-0.2
				c0.1-0.5,0.1-0.9,0-1.3c0,0,0,0,0-0.1c-0.1-0.1-0.1-0.1-0.2-0.2c-0.5-0.1-0.9-0.2-1.3-0.3c-0.9-0.2-1.8-0.4-2.7-0.6
				c-1.2-0.3-2.4-0.5-3.7-0.6c-0.8-0.1-1.4-0.4-1.9-1c-0.6-0.7-0.9-1.1-1.7-1.5h-0.1c-0.1,0-0.2-0.1-0.3-0.1
				c-0.8-0.3-1.6-0.5-2.4-0.7c-0.7-0.2-1.4-0.5-2-0.9c-0.1-0.1-0.3-0.1-0.4-0.2c-1-0.5-2.1-0.9-3-1.4s-1.8-1.1-2.8-1.5
				c-0.9-0.4-1.8-0.5-2.7-0.7c-0.3-0.1-0.6-0.2-1-0.2c-0.5,0-0.7,0.4-1.4,0.1c-0.6-0.2-0.9-0.6-1.6-0.7c-0.9-0.1-1.7,0-2.6,0
				c-1.8,0.1-3.6,0.3-5.3,0.8c-0.3-0.4-0.4-0.9-0.6-1.2c-0.4-0.5-0.9-0.8-1.5-0.9c-1.6-0.3-3.4,0.2-5.1,0.3
				c-1.9,0.1-3.4-0.8-5.2-0.9c-2-0.2-3,1.4-4.8,1.8c-1.5,0.3-2.9-1-4.5-0.3c-0.6,0.3-1.2,0.7-1.9,1c-1.1,0.6-2,0.7-3.3,0.8
				c-1.8,0.2-3,1.8-4.9,2c-0.9,0.1-1.8,0-2.8,0.3c-0.9,0.3-1.8,0.6-2.7,1c-0.3,0.1-0.6,0.3-0.9,0.4c-0.8,0.2-1.5,0.4-2.2,0.7
				c-1.1,0.4-2.1,1-3.1,1.6c-0.8,0.5-1.9,1.5-2.2,1.8c-0.7,0.6-1.5,1.2-2,1.6c-0.1,0.1-0.2,0.1-0.3,0.2c-0.6,0.3-1.2,0.6-1.7,0.9
				c-0.1,0-0.3,0-0.4,0.1c-1.3,0.7-2.7,1.1-3.9,1.9c-1.4,0.9-2.7,2.2-3.6,3.6c0,0.1,0,0.2-0.1,0.3c-0.5,0.8-0.8,1.7-1.3,2.6
				c0,0.1,0,0.1-0.1,0.2c0,0.1,0,0.2,0,0.3c-0.3,0.8-0.5,1.5-1,2.2c-0.1,0.1-0.2,0.3-0.3,0.4c-0.7,1.3-1.4,2.5-2.2,3.7
				c-1.9,3.1-4.2,6-6,9.2c-1.6,2.9-3,5.9-4.7,8.8c-0.6,1-1.3,2.1-1.9,3.1c0,2.2,0.2,4.3,0.8,6.5c0.6,2.3,1,4.6,1.3,6.9
				c0.6,4.2,1,8.3,1.3,12.5c0.1,2.3,0.5,4.6,1.5,6.6c0.8,1.7,1.9,3.1,2.7,4.8c0.2,0.4,0.3,0.7,0.4,1.1c0.4,0.5,0.4,1.1,0.4,1.8
				c0,0.1,0,0.1,0,0.2c0.1,0.8,0.2,1.6,0.3,2.5c0.3,2.2,1.2,4.3,1.6,6.6c0.1,0.4,0.1,0.9,0.2,1.3c0.1,0.3,0.2,0.7,0.3,1
				c0,0.2,0,0.3,0,0.5c0.6,4.3,1.8,8.5,3.6,12.4c0.9,1.5,1.8,3,2.7,4.4c2,2.9,4.4,5.5,6.8,8c0.1,0.2,0.3,0.3,0.4,0.5
				c0,0,0.1,0,0.1,0.1c0,0,0,0,0,0.1c1.3,1.3,2.4,2.7,3.3,4.2c1.5,2,2.7,4.2,3.5,6.6c0.2,0.4,0.3,0.8,0.4,1.3
				c0.1,0.2,0.1,0.3,0.2,0.5c0.5,1.6,0.7,3.4,0.7,5.1c0,0,0,0,0,0.1c0.1,1.1,0.1,2.3,0.1,3.4c0,1-0.1,2.1-0.1,3.1
				c-0.1,2.2-0.4,4.5-0.7,6.7c-0.1,0.1-0.2,0.1-0.2,0.2c-0.1,0.1-0.2,0.3-0.3,0.4c-0.2,0.3-0.3,0.6-0.5,0.9c-0.2,0.3-0.4,0.7-0.6,1
				c-0.2,0.3-0.4,0.6-0.6,1c-1.2,1.4-2.2,3.1-2.8,4.6c-0.8,2.1-1,4.4-1.3,6.6v0.1c-0.3,0.8-0.6,1.6-0.8,2.5
				c-0.1,0.3-0.2,0.6-0.2,0.9c-0.3,0.6-0.8,1.1-1.3,1.6c-1.5,1.2-3.3,1.7-5,2.4c-1,0.4-2,0.5-3,0.9c-1.1,0.4-2.1,1.1-3.1,1.8
				c-0.9,0.6-1.7,1.1-2.6,1.8c-0.7,0.5-1.4,0.9-2.1,1.4c0,0,0,0-0.1,0c-1.5,0.5-2.7,0.9-4,1.8c-1.4,1.1-2.8,1.7-4.5,2.1
				c-1.1,0.3-2.3,0.6-2.9,1.7c0,0,0,0.1-0.1,0.1c-0.1,0.1-0.2,0.2-0.2,0.2l-0.1,0.1l0,0c-0.1,0.1-0.2,0.3-0.3,0.4
				c-0.2,0.3-0.3,0.6-0.2,0.9c0,0.1,0.1,0.2,0.2,0.2c0.3,0,0.5-0.1,0.8-0.2c0.4-0.1,0.8-0.2,1.2-0.3c0.5-0.1,1-0.1,1.5-0.2
				c0.5-0.1,0.9-0.2,1.4-0.1c0.4,0,0.7,0.1,1,0.2c2.4,0.1,4.7,0.5,6.9,1.1c0.1,0,0.3,0,0.4-0.1l0,0c1.7,0.3,3.4,0.7,5,1.1
				c0.7,0.2,1.3,0.5,2,0.7c2.6,1,5.2,2.3,7.5,3.8c2.4,1.6,3.8,3.9,5.5,6.2c0.6,0.8,1.1,1.6,1.5,2.5c0,0.6,0,1.1-0.1,1.7
				c-0.3,1.4-1.1,2.7-2.2,3.6c-0.6,0.5-1.2,0.9-1.2,1.7c0,0.5,0.6,0.7,1,0.5l0,0c0.2,0,0.4,0,0.6-0.1c0.7,0,1.4,0,2.1,0.1
				c0.7,0.1,1.2,0.4,1.7,0.8c0.2,0.5,0.4,1,0.6,1.4c0.8,1.3,1.4,2.7,2,4.1c0,0.1,0.1,0.2,0.1,0.3c0.3,0.7,0.7,1.5,1,2.2
				c1.1,2.2,2.6,4,4.3,5.8c0.9,1.1,2.1,1.9,3.1,2.9l0,0c0.2,0.2,0.4,0.4,0.5,0.5c0.4,0.5,1,1.1,1.5,1.3c0.6,0.3,1.4,0.3,1.8-0.4
				c0.3-0.4,0.6-0.9,0.8-1.4c0.4-0.6,0.7-1.2,1.1-1.8c0.3-0.4,0.6-0.8,0.8-1.1c0,0.3,0,0.6,0.1,0.9c0.2,0.9,0.4,2.1,0.8,3
				c0.4,0.9,1.3,1.2,2.1,1.6c0.6,0.3,1.2,0.7,1.7,0.6c-0.2,1.7-0.1,3.4-0.2,5.1c-0.1,0.6-0.1,1.3-0.2,1.9c0,0.1,0,0.1,0,0.2
				c-0.1,0.3-0.1,0.6-0.1,0.9c-0.1,1.4-0.2,2.8-0.3,4.2c-0.1,0.4-0.1,0.8-0.2,1.2c-0.2,1.7-0.5,3.5-0.6,5.2
				c-0.1,1.9-0.3,3.9-0.2,5.7c0,1.1,0,2.3,0.1,3.4s0.2,2.2,0.3,3.2c0.1,0.8,0.2,1.7,0.4,2.5c0.2,0.9,0.2,1.8,0.4,2.8v0.1
				c0.1,1.5,0.2,3.1,0.2,4.6c-0.1,3.3-0.3,6.5-0.4,9.7c-0.1,3.6,0,7.3,0,10.9c0,1.5-0.1,2.9-0.1,4.4c0,0.8,0.1,1.5,0.1,2.3
				c0,0.3,0,0.5-0.1,0.8s-0.1,0.6-0.2,0.8c-0.2,0.9-0.2,1.9-0.3,2.8c-0.2,2.2,0,4.4-0.1,6.6c-0.1,4.1-2,8-2.3,12.1
				c-0.1,1,0.1,2.1,0,3.1c0,0.7-0.3,1.3-0.2,2c0.3,1.4,2.4,1.6,3.6,1.7c2.5,0.3,4.9,0.1,7.4,0.1c1.2,0,2.3,0.1,3.5,0
				c1.1-0.1,2.3-0.4,3.5-0.4c0.2,0,0.4-0.1,0.6-0.2c1.2,0.1,2.5,0.2,3.7,0.3c1.4,0.1,2.8,0.1,4.2,0c0.2,0,0.4,0,0.6,0
				c0.1,0,0.3,0,0.4-0.1c1.7-0.1,3.3-0.3,5-0.5c0.6-0.1,1.3-0.1,1.9-0.2c1.8-0.1,3.7-0.2,5.5-0.4c0.8,0,1.6,0.2,2.3,0
				c1.5-0.3,1.6-1.6,1.7-2.9c0.1-0.7,0.2-1.4,0.1-2.1c-0.1-0.2-0.1-0.5-0.2-0.7c0.1-0.1,0.2-0.2,0.2-0.3c0-3.4-0.5-6.7-0.9-10
				c0-0.2,0-0.4-0.1-0.5c-0.1-3.5-0.2-7.1-0.5-10.6c-0.2-3.4-0.4-6.8-0.5-10.2c0-3.4-0.1-6.8-0.4-10.2l-0.1-0.7
				c0.1-1,0.2-2.1,0.1-3.1c0-1.7-0.5-3.3-0.9-5c0-0.2,0-0.4-0.1-0.7c0-1.2,0.1-2.4,0.3-3.5c0.3-2.1-0.4-3.8-0.8-5.8
				c-0.4-1.9-1-3.8-1.5-5.6c-0.5-2-0.9-4.1-1.2-6.1c-0.2-1.7-0.3-3.5-0.9-5.2c-0.6-1.8-1.6-3.5-2.4-5.1c-0.7-1.4-1.2-3-1.9-4.5
				c-0.8-1.8-2-3.3-2.8-5.1c-0.2-0.4-0.4-0.8-0.7-1.1c-0.1-0.2-0.2-0.5-0.3-0.7c2.2-1.6,4.2-3.8,5-6.1c0.6-1.7,0.4-3.5,0.3-5.4l0,0
				c0.9-0.3,1.7,0.2,2.4,0.7c1.3,1,2.3,2.3,3.5,3.4c0.8,0.7,1.7,1.4,2.6,2.1c0.4,0.3,0.7,0.6,1,0.9c0.3,0.3,0.5,0.6,0.8,1
				c0.2,0.3,0.5,0.7,0.8,1c0.5,0.5,1,0.6,1.5,0.5h0.1c0.6-0.2,1-0.6,1.4-1c0.3-0.3,0.5-0.5,0.9-0.8c0.1-0.1,0.4-0.3,0.4-0.4
				c0.1,0,0.1-0.1,0.2-0.1c0.5-0.3,0.3-1.3-0.4-1.2c-0.3,0-0.6,0.2-0.9,0.4c-0.2,0.1-0.4,0.1-0.6,0.2c-0.1-0.2-0.2-0.5-0.3-0.7
				c-0.3-0.6-0.7-1.1-1-1.7c-0.3-0.6-0.7-1.3-1.1-1.9c-0.7-1.2-1.3-2.6-1.8-3.9c-1.2-3.1-3.1-5.9-4.6-8.8c-1.4-2.6-3.4-4.8-5.3-7
				c-0.3-0.3-0.6-0.6-1-0.9c-1.8-1.9-4.1-3.8-6.7-4.3c0.3-0.3,0.6-0.5,0.6-0.5c0.6-0.4,1.2-0.9,1.8-1.3c0.5-0.3,1-0.7,1.5-1l0,0
				c0.2-0.1,0.5-0.2,0.7-0.3c0.4-0.2,0.7-0.4,1-0.7c0.2-0.2,0.4-0.3,0.5-0.5c0,0,0.1,0,0.1-0.1c1-0.7,1.8-1.3,2.7-2.1
				c1.1-1,2.3-1.7,3.3-2.7c1.1-1.1,2.2-2,3.3-2.9c0.4-0.3,1-0.8,1.3-1.2c0.4-0.4,0.6-1,0.9-1.4c0.9-1.1,2.1-1.9,3.1-2.8
				c0.5-0.4,1-1.1,1.5-1.6c0.3-0.3,0.7-0.5,1-0.8c0.4-0.3,0-1-0.4-0.7c-1.5,0.8-2.7,2.1-4.1,3c-0.6,0.4-1.1,0.8-1.7,1.2
				c-0.6,0.4-1.2,0.5-1.7,1.1c-0.4,0.5-0.8,1-1.4,1.5c-0.7,0.6-1.6,0.8-2.4,1.3c-1.3,0.7-2.4,1.4-3.4,2.5c-2.1,2.4-4.7,4.2-7.3,5.9
				c-1.1,0.7-2.3,1.5-3.4,2.4c-0.6,0.5-1.1,1.1-1.5,1.7c-0.1,0.2-0.3,0.3-0.4,0.5c-0.6,0.3-1,0.7-1.4,1.2c-0.1,0-0.2,0-0.3,0
				c-0.5,0-1,0.1-1.5,0.2c-0.8,0-1.6,0-2.4,0.1c-1.6,0.2-2.4,1.9-3.2,3.1c-0.4,0.6-0.7,1.2-1,1.8c-0.7,1-1.1,2.2-1.8,3.2
				c-1.8,2.3-3.2,4.9-4.7,7.4c-1.7,2.7-3.3,5.4-4.7,8.2c-0.7,1.4-1.5,2.6-2.3,3.9c-0.2,0.4-0.4,0.7-0.6,1.1
				c-0.3,0.3-0.5,0.6-0.7,0.9c-0.4,0.5-0.8,1-1.4,1.2c-0.5,0.2-1,0.2-1.5,0c-0.1-0.1-0.2-0.2-0.2-0.4c-0.4-0.6-0.7-1.3-1.1-1.9
				c-1.2-1.7-1.9-3.4-2.7-5.3c-0.9-2-1.8-4.1-2.6-6.2c-0.3-0.8-0.4-1.6-0.7-2.3c-0.4-0.9-0.7-1.7-0.9-2.7c-0.4-2-1.6-4.3-0.7-6.3
				c0.4-0.8,0.9-2.3,2.1-1.6c0.2,0.1,0.3,0.3,0.4,0.4c0.3,0,0.7,0.1,1,0.1c1.3-0.9,2.5-1.7,3.1-3.4c0.8-2.2-0.3-4.6-1.1-6.8
				c-0.1-0.2-0.3-0.3-0.4-0.5c-0.6-1.2-1.2-2.5-1.5-3.8c-0.5-1.8-0.9-3.7-1-5.5c-0.1-0.9-0.1-1.8-0.1-2.6c0-0.3,0-0.5,0.1-0.7
				c0-0.8,0.2-1.6,0.2-2.4c0-1.3-0.8-2.2-1.7-3.1c-0.2-0.1-0.3-0.2-0.5-0.4c-0.1-0.1-0.3-0.2-0.4-0.3c-0.2-0.2-0.4-0.4-0.7-0.6
				c-0.8-0.8-1.5-1.7-2.1-2.6c-0.1-0.1-0.1-0.2-0.2-0.3c-0.1-0.4-0.2-0.9-0.2-1.4c0-0.2,0-0.4,0.1-0.6c0.1,0.2,0.2,0.5,0.4,0.7
				c0.8,0.8,1.6,1.6,2.5,2.5c1.5,1.6,3.3,3.1,5.2,4.2c1.9,1.1,3.2,2.9,5,4.1c0.4,0.3,0.9,0.5,1.3,0.7c0.2,0.2,0.4,0.3,0.6,0.4
				c0.4,0.3,0.8,0.6,1.2,0.9c0,0,0,0.1,0.1,0.1c1.5,1,3.1,1.9,4.6,2.8c2.1,1.2,4.4,2.5,6.3,4c0,0,0.1,0,0.1,0.1
				c0.2,0.1,0.4,0.1,0.6,0.1c-0.3-0.4-0.5-0.6-0.6-0.7c-0.4-0.3-0.8-0.7-1.3-1c-0.9-0.6-1.8-1.1-2.6-1.6c-1-0.7-1.9-1.6-2.6-2.7
				c-1.1-1.2-2.1-2.5-2.9-3.9c-0.1-0.2-0.2-0.3-0.3-0.5c-0.7-0.9-1.6-1.7-2.3-2.6c-0.8-1-1.6-1.7-2.1-2.9c-0.4-1.1-0.5-2.4,0-3.5
				c0-0.1,0.1-0.1,0.1-0.2c0.9,0.4,1.7,1.1,2.4,1.8c0.9,0.8,1.8,1.6,2.8,2.4c0.6,0.3,1.2,0.4,1.8,0.4c0.6-0.2,1.2-0.7,1.7-1.2
				c0.8-1.8,2-3.4,3.3-4.8c2.3-2.4,5.3-4.5,8.5-5.5c1.8-1,4-1.4,6-1.6c0.8-0.1,1.5-0.1,2.3-0.1c1.6-0.1,3.1,0.2,4.5,0.5
				c1,0.2,1.9,0.3,2.9,0.5c3.1,0.6,6.3,1.2,9.4,2c1.5-0.1,2.9-0.5,4.4-0.7c0.3,0,0.5-0.1,0.8-0.1c0.1,0,0.3-0.1,0.4-0.1
				c0.1,0,0.2,0,0.2,0c0.2,0,0.5-0.1,0.7-0.2c0.6-0.2,0.9-0.7,0.8-1.3c-0.2,0-0.4-0.1-0.6-0.1c-0.7,0-1.3,0-2,0c-0.1,0-0.2,0-0.4,0
				c-0.1,0-0.2,0-0.4,0c-0.4,0-0.7-0.1-0.9-0.3c-1.1-0.3-2.2-0.7-3.2-1.3c-1.2-0.8-2.4-1.7-3-3c-0.3-0.5-0.4-1.1-0.4-1.7
				c0-0.6,0.2-1.5-0.2-2c-0.4-0.7-1.2-0.3-1.8-0.1c-0.1,0-0.1,0.1-0.2,0.1c-0.1,0-0.1,0-0.2-0.1c-0.3,0-0.6,0-0.9-0.1
				c-1-0.4-1.9-1.7-2.7-2.3c-2.2-1.8-4.2-3.7-5.6-6.2c-0.3-0.6-0.7-1.1-1.1-1.6c-2-1.1-3.9-2.3-5.2-4.3c-1.4-2.2-1.2-5.1-0.3-7.5
				c0.3-2,0.8-4,1.4-5.8c0.7-2.4,1.4-4.9,1.8-7.5c0.2-2.1,0.1-4.2-0.2-6.1c-0.2-0.5-0.4-1-0.7-1.5s-0.5-1-0.9-1.5
				c-0.7-0.9-1.5-1.7-2.3-2.5c-2.2-2.1-4.5-4.3-5.6-7.2c-0.8-2.2-0.9-4.6-0.7-6.9c0.1-1.4,0.4-3.1,1.4-4.1c0.3-0.5,0.7-1,1.1-1.4
				c0,0,0.1,0,0.1-0.1c0.6-0.6,1.4-1.1,2.1-1.6l0.1-0.1c0.2-0.1,0.4-0.2,0.6-0.5c0.1-0.1,0.1-0.2,0.2-0.4c0.1-0.1,0.2-0.3,0.3-0.4
				s0.2-0.2,0.2-0.2c0.1-0.1,0.2-0.2,0.2-0.3c0.1-0.1,0.2-0.2,0.3-0.3c0,0,0,0,0.1,0c1.3-1.3,2.9-2.1,4.5-3.1
				c0.4-0.2,0.8-0.4,1.3-0.5c0.2-0.1,0.5-0.1,0.7-0.2c0.1,0,0.2-0.1,0.3-0.2c0.3-0.1,0.6-0.2,0.9-0.3c0.5-0.1,0.9-0.3,1.3-0.4
				c-0.1,1.1,0.1,2.2,0.6,3.3c0.6,1.3,1.9,2,3.3,2c0.8,0,1.3-0.1,1.8-0.5s0.9-0.9,1.2-1.4c0.5-0.9,0.6-2,0.3-3
				c0.6,0.6,1.1,1.4,1.6,2.2c0.3,0.5,0.6,1.1,1,1.6l0,0c-0.1,0.1-0.1,0.1-0.2,0.2c-0.2,0.2-0.2,0.4-0.3,0.6c0,0.1,0,0.3,0,0.3l0,0
				l0,0l0,0l0.1,0.1c0.2,0.1,0.4,0.2,0.6,0.1c0.5-0.3,1-0.5,1.3-1c0.1-0.2,0.1-0.5,0-0.6v-0.1c0-0.2-0.1-0.3-0.3-0.4
				c-0.1-0.1-0.2-0.3-0.3-0.4c-0.2-0.5-0.5-1-0.8-1.5s-0.9-1.6-0.8-2.4c0.1,0,0.2-0.1,0.3-0.1c0,0,0,0,0.1,0.1
				c0.6,0.9,1.5,1.7,2.4,2.3c0.9,0.6,1.4,1.3,1.3,2.4c-0.1,0.5-0.4,1-0.4,1.5c0,0.3,0.1,0.6,0.1,0.8c0.2,0.3,0.4,0.7,0.5,1
				c0.2,0.8,0,1.5-0.2,2.3c-0.1,0.4-0.2,0.8-0.4,1.2c-0.1,0.3-0.2,0.5-0.3,0.8c-0.1,0.2-0.1,0.4-0.2,0.6c0,0.1,0,0.2-0.1,0.3
				c0,0.2-0.1,0.7,0,0.9c0.2,0.3,0.6,0.5,1,0.5s0.7,0,1.1,0.1c0.8,0.2,1.2,0.9,1.4,1.6c0.1,0.2,0.1,0.4,0.2,0.6
				c0.2,0.6,0.3,1.2,0.4,1.8c0.1,0.5,0.1,1,0.1,1.5c0.2,0.7,0.3,1.3,0.2,2c-0.1,0.2-0.2,0.3-0.3,0.5l-0.1,0.1l-0.1,0.1l-0.1,0.1
				c0,0-0.1,0.1-0.1,0.2c-0.2,0.7-0.8,1.2-1.2,1.8c-0.4,0.6-0.7,1.4-0.9,2.1c-0.5,1.5-0.8,2.9-0.4,4.5c0.3,1,0.8,2,1.7,2.6
				c0.1,0.1,0.1,0.2,0.2,0.2c0.1,0.1,0.2,0.2,0.2,0.3c0.8,0.9,1.8,1.7,3,2l0,0c0.3,0.2,0.3,0.5,0.2,0.8c-0.4,1.1-0.8,2.4,0.2,3.3
				c0.1,0.1,0.2,0.2,0.3,0.2c0.2-0.1,0.4-0.3,0.4-0.6c0.2-2.9,3.4-2.3,4.9-4.1c0.7-0.9,0.2-2,0.9-2.8c1-1.3,2.2,0.3,3.1,0.7
				c1.2,0.5,2.4-0.5,2.5-1.7c0-1-0.6-1.5-1.4-1.7c0-0.1-0.1-0.2-0.2-0.3c-1.9-1.1-5.4,0.3-6.7,1.8c-0.2,0.3-0.4,0.6-0.4,0.9
				c0,0.3,0,0.6,0.1,0.9c0.1,0.2,0.3,0.4,0.3,0.5c-0.1,0.3-0.3,0.5-0.8,0.7c-0.3,0.1-0.6,0.2-0.9,0.3c-0.1,0-0.2,0-0.2,0
				c-0.2,0-0.4,0-0.6,0l0,0c-0.6-0.1-1.1-0.6-1.4-1.1l0,0c-0.2-0.3-0.4-0.6-0.5-1c0-0.1-0.1-0.1-0.1-0.2c-0.2-0.5-0.1-1,0-1.5
				c0-0.3,0.2-0.5,0.3-0.8c0.4-0.5,0.8-0.9,1.3-1.3c1.8-1.8,3.7-2.8,6.1-3.6c1.9-0.6,3.1-1.6,3.6-3.6c0.5-2.1-0.8-4.3-1-6.4
				s-0.8-3.9-1.8-5.8c-0.6-1.1-1.3-2.2-1.8-3.3c-0.4-1-0.8-2.1-1.3-3.1c-0.9-1.9-2.1-3.5-3.5-5c-0.9-0.9-2-2-3.1-2.7
				c0.2-0.3,0.3-0.7,0.2-1.4c-0.2-1.8-2.5-2.6-4.4-3.2c-0.4-0.2-0.9-0.3-1.2-0.5c-1.2-0.5-2.1-0.7-3.4-0.9c-0.4-0.1-0.9-0.1-1.3-0.2
				c-1.3-0.5-2.4-1.3-3.8-1.4c-0.2,0-0.4,0.2-0.4,0.4c-0.9-0.6-1.8-1.2-2.7-1.6c-0.4-0.2-0.9-0.4-1.4-0.5c-0.4,0-0.7,0.1-1,0.2
				c-1,0.1-2.1,0.6-2.9,0.8c-1.3,0.3-2.7,1.1-3.6,2.2c-0.2,0.1-0.4,0.3-0.6,0.5c-0.5,0.6-0.8,1.2-1.3,1.8c-0.3,0.2-0.5,0.4-0.8,0.7
				c-0.8,0.6-1.7,0.7-2.8,0.5c-2-0.3-3.5-2.6-4.5-4.2c-0.6-1-1.2-2.1-1.5-3.1s-0.4-2-0.6-3c-0.3-1.8-0.9-3.4-1.6-5
				c-0.4-1-1-1.8-1.3-2.8s-0.6-2-0.9-3c-0.1-0.4-0.3-0.8-0.5-1.1c-0.4-1.1-0.8-2.2-1.5-3.2c-0.1-0.1-0.1-0.2-0.2-0.3
				c-0.1-0.2-0.3-0.4-0.4-0.6c-0.3-0.4-0.6-0.8-1-1.2c-0.4-0.4-0.9-0.8-1.4-1.1l0,0c1-1.1,2.2-2,3.5-2.8c0.1,0,0.1-0.1,0.2-0.1
				c1.7-0.9,3.3-2,4.9-2.4c0.9-0.3,1.7-0.7,2.5-1c0.9-0.3,1.9-0.5,2.9-0.9c2-0.7,3.6-1.7,5.3-2.2l0,0c1.5-0.3,3-0.5,4.6-0.9
				s3.2-0.5,4.8-0.7c0.9-0.1,1.9-0.2,2.8-0.1c0.2,0,0.3,0.1,0.5,0.1c0.3,0.1,0.6,0.2,0.9,0.2c0.2,0.1,0.7,0.3,0.3,0.1
				c0.6,0.3,1.2,0.6,1.9,0.9c0.9,0.4,2.2,0.9,3.3,1.2c2.4,0.6,5.4,1.1,7.7,0c0.1,0,0.2,0.1,0.2,0.2c1,0.2,1.8-0.7,2.9-0.1
				c0.2,0.1,0.4,0,0.5-0.1c0.2-0.3,0.2-0.6,0.4-1c0.5-0.8,0.8-0.5,1.6-0.3c0.3,0,0.5,0.1,0.8,0.1c0.1,0,0.2,0,0.2,0
				c0.1,0,0.3,0.1,0.4,0.1c0.3,0.1,0.5,0.3,0.9,0.2c0.1,0,0.5-0.3,0.9-0.6c0.3-0.1,0.6-0.3,0.9-0.5c0.1,0.3,0.5,0.3,0.7,0.1
				c0.6-0.5,2-1.6,2.3-0.3c0.1,0.4,0.5,0.5,0.8,0.3s0.7-0.7,1.2-1.1c0.2,0,0.5,0,0.7-0.1c0.1,0.2,0.3,0.3,0.5,0.3
				c0.9-0.1,1.5-0.9,2.3-1.1c0.1,0.1,0.1,0.3,0.2,0.4c0.1,0.2,0.4,0.3,0.6,0.2c0.6-0.2,1.2-0.5,1.8-0.7c0,0.4,0.4,0.7,0.9,0.5
				c0.2-0.1,0.5-0.2,0.7-0.3c0,0.3,0.2,0.5,0.5,0.5c0.6,0,1.4,1,1.9,1.4c1,0.7,2,1.4,2.9,2.3c1.3,1.4,2.3,3.2,3.2,4.9
				c1.1,2,1.6,4.3,2.5,6.3c0.8,1.9,1.8,3.9,2.3,5.9c0.6,2.2,0.7,4.7,0.5,6.9c-0.1,1,0.1,2.1,0.1,3.1c0.1,0.9,0.2,1.9,0.3,2.9
				c0.2,1,0.6,2,0.8,3c0.2,1.1,0.8,2.1,0.6,3.3c-0.3,2.3-0.5,4.5-0.8,6.8c-0.2,1.4-0.3,2.7-0.2,4.1c-0.1,0.4-0.2,0.8-0.2,1.3
				c0,1.2,0,2.3,0.1,3.4l0,0l0,0c-0.1,0.2-0.3,0.4-0.5,0.5c-0.3,0.1-0.5,0-0.8-0.1c0,0,0,0-0.1,0c-0.1-0.2-0.2-0.4-0.3-0.6
				c-0.2-0.4-0.4-0.7-0.7-1c-0.2-0.3-0.4-0.6-0.8-0.7c-0.1-0.1-0.2-0.1-0.3-0.2c-0.2-0.2-0.5-0.4-0.7-0.7c-0.1-0.1-0.1-0.1-0.2-0.1
				c-0.1,0-0.3,0-0.4,0.2c-0.2,0.2-0.3,0.5-0.4,0.7c-0.1,0.2-0.3,0.3-0.4,0.4c-0.4,0.1-0.8,0.3-1.2,0.4c-0.5,0.1-1.1,0.2-1.1,0.8
				c0,0.1,0.1,0.3,0.2,0.3c0.4,0.2,0.7,0.1,1.1,0c0.4-0.1,0.8-0.2,1.1-0.4c0.2-0.1,0.4-0.1,0.7-0.4c0.2-0.2,0.4-0.4,0.5-0.6
				c-0.1-0.3,0.4-0.7,0.8-0.4c0.7,0.5,0.9,1.3,1.1,2.1c0.3,1.1,0.9,1.7,1.7,2.5c1.4,1.4,1.3,3.2,1.3,5c0,0.2,0,0.4-0.1,0.7
				c0,0.1,0.1,0.1,0.1,0.2c0.1-0.2,0.2-0.5,0.3-0.7c0.2-0.6,0.4-1.2,0.5-1.8c0.4-1.7,0.2-3.3-0.2-5c-0.5-2.4-0.7-4.4,0-6.7
				c0.4-1.4,0.6-2.9,1.2-4.2c0.1-0.5,0.2-1,0.4-1.5c0.1-0.1,0.2-0.3,0.2-0.5c0.4-0.8,0.7-1.3,0.9-2.2c0-0.1,0-0.3,0.1-0.4
				c0-0.1,0.1-0.2,0.1-0.2c0.2-0.8,0.6-1.6,0.7-2.4c0.2-0.9-0.1-1.7,0.4-2.6c0.4-0.7,0.9-1.4,1.3-2.2c0.1-0.1,0.1-0.2,0.2-0.4
				c0.1-0.1,0.1-0.2,0.2-0.3c0.7-1,1.5-1.9,2.2-2.9c0,0,0,0,0-0.1c0.2-0.3,0.3-0.7,0.4-1c0.1-0.3,0.1-0.5,0.1-0.8
				C243.6,82.9,243.5,82.7,243.5,82.5z M184.7,103.4c-0.2,0.2-0.4,0.3-0.4,0.7c0,0.4,0.3,0.5,0.2,0.9c-0.1,0.6-0.4,0.7-1,0.7
				c-1.2-0.2-0.9-1.5-0.5-2.3c0.2-0.3,0.4-0.5,0.6-0.7C184.1,102.3,185.3,102.7,184.7,103.4z M166.6,104.5c0.7-0.4,1.5-0.7,2-1.3
				c0.5-0.5,0.7-1,0.9-1.6c0.4-0.3,0.8-0.5,1.1-0.8s0.6-0.5,0.8-0.8c0.1,0,0.2-0.1,0.3-0.1c0.6-0.3,0.7-1,1.1-1.5
				c0.4-0.6,1.2-0.9,1.8-1.3c0.5-0.4,1.1-0.7,1.6-1.1c0.3,0.2,0.6,0.3,0.9,0.4c0.7,0.2,1.5-0.3,2.2-0.3c1,0,2,0,3,0.2
				c0.2,0,0.3,0.1,0.5,0.1l0.1,0.1c0.1,0.1,0.1,0.3,0.2,0.4c0.1,0.3,0.4,0.6,0.7,0.8c0,0,0.1,0,0.1,0.1c0.1,0,0.1,0,0.2,0.1
				c0.5,0.4,1.3,0.3,1.9,0.2c0.5,0.3,0.9,0.6,1.4,0.8c1.3,0.5,2.9,0.4,4.3,0.3c0.9-0.1,1.8-0.2,2.7-0.3c0.4,0.8,1,1.6,0.1,2.3
				c-0.5,0.4-1.8,0.1-2.5,0c-0.2,0-0.6-0.1-1-0.2c-0.1,0-0.2-0.1-0.3-0.1c-0.3-0.1-0.6-0.3-0.9-0.4c-0.2-0.1-0.8-0.1-1.2,0
				c-0.9-0.1-1.9-0.3-2.8-0.3c-1.2,0-2.3,0.2-3.5,0.3c-0.4,0-0.8,0.1-1.3,0.2l0,0c-1,0-2.1,0.3-3,0.7h-0.1c-1.1,0-2.6,0.6-3.6,1
				c-1.6,0.7-3.1,1.5-4.9,1.9c-0.5,0.1-1.1,0.3-1.6,0.4c-0.3,0-0.6,0-0.8,0.1c-0.5,0.1-1.1,0.4-1.6,0.6c-0.1,0-0.3,0-0.4,0
				C165.7,105,166.3,104.7,166.6,104.5z M156.1,140.1c0.5-1.2,1.3-2.5,2.3-3.3s2.1-1.4,3.3-1.8c0.4-0.2,0.8-0.3,1.2-0.4
				c1.5-0.2,3.1,0.2,4.3,0.9c0.9,0.6,1.9,1.5,2.5,2.6c2.6,2.8,0.7,9.3,0.1,12.4c-0.5,3.1-1.2,6.5-0.9,9.7c0.1,0.2,0.2,0.4,0.3,0.6
				c0.1,0.1,0.1,0.2,0.1,0.3c0.6,1.2,1.2,2.4,2,3.5c1,1.4,2.1,2.8,3.2,4.1c0.1,0.1,0.2,0.2,0.3,0.3c3.4,3.7,6.2,8.4,10.6,11
				c0.4,0.2,0.5,0.9,0,1.1c-1.9,0.9-3.7,0-5.5-0.7c-1.1-0.4-2.2-0.6-3.4-0.6c-0.1,0-0.1,0-0.2,0c-0.6,0,0.1,0.1-0.6-0.1l0,0
				c-1.3-0.1-2.6-0.2-3.8-0.6c-3.7-1.4-6.5-4.6-9-7.5c-1.3-1.4-2.8-2.8-4-4.4c-1-1.1-1.9-2.2-2.2-3.7c-0.2-1-0.2-2.3,0-3.4
				c0.1-0.3,0.2-0.5,0.3-0.8c0.1-0.5,0.2-1,0.3-1.5c0.3-1.2,0.7-2.4,1.1-3.7c0.3-1,0.8-2.1,0.6-3.2c-0.1-0.5-0.4-1-0.6-1.4
				c-0.1-0.1-0.2-0.2-0.2-0.2c-0.5-1.2-1.3-2.1-1.7-3.4c0,0,0,0,0-0.1c-0.1-1-0.4-1.9-0.5-2.9C155.9,141.9,156.1,141,156.1,140.1z
				 M175.6,23.2c0.1,0,0.2,0,0.2,0.1c0,0,0.1,0,0.1,0.1C175.9,23.3,175.7,23.3,175.6,23.2z M208.2,32.6c-0.2,0-0.3-0.1-0.5-0.1
				c-0.1,0-0.2-0.1-0.3-0.1c0.3,0.1,0.6,0.1,1,0.2C208.3,32.6,208.2,32.6,208.2,32.6z"/>
			<path class="st1" d="M172.6,321.1L172.6,321.1L172.6,321.1L172.6,321.1z"/>
			<path class="st1" d="M183.5,101.7L183.5,101.7L183.5,101.7z"/>
			<path class="st1" d="M165.1,96.4L165.1,96.4L165.1,96.4L165.1,96.4z"/>
			<path class="st1" d="M148.6,27.1L148.6,27.1C148.5,27.1,148.5,27.1,148.6,27.1C148.5,27.1,148.6,27.1,148.6,27.1z"/>
			<path class="st1" d="M156,24.2L156,24.2L156,24.2L156,24.2z"/>
			<path class="st1" d="M197.1,54.8h0.1C197.3,54.8,197.3,54.8,197.1,54.8z"/>
			<path class="st1" d="M199.9,57.4L199.9,57.4L199.9,57.4z"/>
			<path class="st1" d="M212.7,52.8L212.7,52.8L212.7,52.8z"/>
			<path class="st1" d="M213.5,34.9C213.5,34.9,213.5,34.8,213.5,34.9C213.5,34.8,213.5,34.9,213.5,34.9z"/>
			<path class="st1" d="M220,156.5c-1,0-2.1-0.2-2.9-0.6c-0.6-0.3-1.1-0.6-1.8-0.7c-1.6-0.3-3.3,0-4.9,0.2c-1,0.2-1.8,0.3-2.8,0.1
				c-0.9-0.1-1.7-0.5-2.6-0.6c-0.8-0.1-1.5,0-2.2,0.2c-0.1,0-0.1-0.1-0.2-0.1c-1.6-0.4-3.3,0.2-4.9,0.2c-0.9,0-1.7-0.4-2.6-0.5
				c-0.3,0-0.7,0-1,0.1c-1,0.5-2.2,1-2.9,0.1c0,0,0-0.1,0-0.2c-0.2-0.4-0.2-1.1-0.2-1.6c0-0.2-0.1-0.4-0.2-0.5c0,0,0,0-0.1,0
				c-1.5,0-3.3,2.8-3.7,4c0,0.2-0.1,0.5,0,0.7c0.1,1.6,1.3,3.1,2.3,4.3s3.6,4.6,5.6,4.4c0-0.1,0.1-0.1,0.1-0.2
				c-0.1-1-0.7-1.9-1.3-2.8l0,0c-0.1-0.1-0.3-0.3-0.4-0.5c-0.2-0.2-0.4-0.4-0.5-0.7l0,0l-0.1-0.1c0,0,0-0.1-0.1-0.1
				c-0.1-0.1-0.1-0.2-0.1-0.2c-0.2-0.2-0.3-0.5-0.3-0.9v-0.1v-0.1v-0.1l0,0l0,0v-0.1c0.1-0.3,0.2-0.5,0.3-0.7
				c0.7-1.4,2.8-2.5,4.5-2.4c0.2,0,0.4-0.1,0.6-0.1c1-0.2,2.2,0,3.4,0.1c0.4,0,0.8,0,1.2,0c0,0,0,0,0.1,0c0.9-0.3,1.6-0.8,2.6-0.6
				c0.9,0.1,1.7,0.5,2.6,0.6c1.5,0.2,2.7-0.1,4.2-0.3c1.6-0.2,3.2-0.5,4.7,0.3c1.2,0.7,2.5,0.9,3.9,0.9
				C220.9,157.8,220.9,156.5,220,156.5z"/>
			<path class="st1" d="M192.9,163.7L192.9,163.7L192.9,163.7z"/>
			<path class="st1" d="M218.2,132.7c-0.7,0.4-1.1,1.2-1.4,1.9c0,0.1-0.1,0.2-0.1,0.2c0,0.1-0.1,0.1-0.1,0.2
				c-0.2,0.4-0.3,0.8-0.1,1.2c0.1,0.1,0.3,0.1,0.3,0c0.3-0.7,0.9-1.6,1.6-2c0.2-0.1,0.4-0.2,0.6-0.3h0.1c0.1,0,0.1-0.1,0.1-0.2
				c0.2-0.1,0.2-0.5,0.1-0.8C219.1,132.4,218.6,132.5,218.2,132.7z"/>
			<path class="st1" d="M216.5,107.3c-0.4,0-0.7,0.3-1.1,0.4c-0.1,0-0.3,0-0.5,0.1c-0.6-0.2-0.7-0.2-0.4,0c0.3,0.3,0.9,0.4,1.3,0.5
				c0.9,0.2,1.8,0.6,2.7,0.6c0-0.1,0.1-0.1,0.1-0.2s0-0.1-0.1-0.2c-0.3-0.2-0.6-0.3-0.9-0.5c-0.3-0.2-0.6-0.4-1-0.6
				C216.6,107.3,216.5,107.3,216.5,107.3z"/>
			<path class="st1" d="M232.3,107.6c-0.7-1-1.1-2.2-1.4-3.4c-0.2-0.7-0.8-1.6-1.5-1.9c-0.5-0.4-1.1-0.7-1.8-0.8
				c-1.1-0.2-2.1-0.7-3.2-0.8c-0.4,0-0.8,0-1.1,0c-0.2,0-0.4,0.1-0.6,0.1c-0.1,0-0.2,0-0.2,0s0,0-0.1,0s-0.1,0-0.2,0.1
				c-0.3,0.1-0.7,0.3-1,0.4h-0.1c-0.1,0-0.2,0.1-0.2,0.1c-0.1,0-0.1,0-0.2,0c-0.1,0-0.1,0-0.2,0.1c-0.3,0.1-0.6,0.3-0.9,0.4
				c-0.2,0.1-0.3,0.1-0.5,0.1l0,0c0,0,0,0-0.1,0.1l0,0c-0.1,0-0.3,0-0.4,0.1c-0.7,0.1-1.4,0.4-2,0.7c-0.6,0.3-1.2,0.7-1.8,1.2
				c0,0-0.1,0.1-0.2,0.1c-0.1,0-0.1,0-0.2,0.1c-0.1,0-0.1,0-0.2-0.1l0,0c-0.1,0-0.2-0.1-0.2-0.3c-0.1-1.1,0.8-1.7,1.7-2.1
				c1.4-0.5,2.9-0.6,4.3-0.9c0.4-0.2,0.8-0.4,1.2-0.6c0-0.1-0.1-0.2-0.2-0.2c-1.3,0.1-2.6,0-3.8,0.3c-0.4,0.1-0.9,0.2-1.3,0.4l0,0
				c-0.3,0.1-0.4,0.2-0.6,0.3c-0.7,0.2-1.3,0.5-1.8,1.1c-0.3,0.3-0.5,0.6-0.7,1c-0.1,0.2-0.1,0.3-0.2,0.5c-0.1,0.1-0.1,0.1-0.2,0.2
				c-0.3,0.3-0.5,0.7-0.5,1.1c0,0.2,0.2,0.3,0.3,0.2c0.2-0.2,0.5-0.3,0.7-0.4c0.4-0.1,0.3,0.2,0.4,0.4c0.1,0.2,0.2,0.4,0.5,0.4
				s0.6-0.2,0.8-0.4c0.4-0.5,1-0.8,1.6-1.1c0.2-0.1,0.4-0.2,0.6-0.2c0,0,0,0,0.1-0.1c0.5-0.2,1.1-0.3,1.6-0.3c0.6,0,1.3-0.1,1.9-0.1
				c0,0.6-0.1,1.1,0,1.7c0.1,0.5,0.2,0.9,0.5,1.3c0.2,0.6,0.5,1.2,1.1,1.7c0.3,0.3,0.7,0.4,1.1,0.6c0.5,0.3,0.9,0.5,1.4,0.5
				c1.3,0.2,2.5-0.9,3-2c0.5-1,0.9-2.3,0.8-3.5c0.6,0.6,1,1.5,1.4,2.2c0.2,0.4,0.5,0.5,0.8,0.8l0.1,0.1c0.1,0.1,0.2,0.1,0.3,0.1
				c0.4,0.3,0.7,0.5,1.1,0.8C232.2,108,232.4,107.8,232.3,107.6z M224.8,104.7c-0.1,0-0.1,0.1-0.2,0.1c-0.4,0.4-0.1,0.8,0.1,1.3v0.1
				c-0.1,0.1-0.2,0.3-0.3,0.4s-0.4,0.2-0.6,0.2c-0.1,0-0.1,0-0.2,0c-0.2-0.1-0.3-0.3-0.4-0.4c-0.3-0.5-0.3-1,0-1.5s0.8-1.1,1.3-1.3
				c0.1,0,0.2,0,0.4,0.1s0.3,0.3,0.3,0.5C225.2,104.4,225,104.6,224.8,104.7z"/>
			<path class="st1" d="M220.2,100.8L220.2,100.8C220.1,100.8,220.1,100.8,220.2,100.8L220.2,100.8z"/>
			<path class="st1" d="M212.4,104.8L212.4,104.8C212.5,104.8,212.5,104.8,212.4,104.8L212.4,104.8z"/>
			<path class="st1" d="M213,104.6L213,104.6L213,104.6L213,104.6z"/>
			<path class="st1" d="M220,103.3C220.1,103.3,220.1,103.3,220,103.3c0.1,0,0.1,0,0.1,0S220.1,103.3,220,103.3z"/>
			<path class="st1" d="M183,108.5L183,108.5c0.2,0,0.3-0.1,0.2-0.2l0,0c0,0-0.1-0.1-0.1,0c0.1-0.1-0.5-0.1-0.5-0.1
				c-0.4,0-0.7,0-1.1,0c-0.7,0-1.3,0-2,0c-0.5,0-1,0-1.5,0c-0.2,0-0.4,0.1-0.7,0.1c-0.6,0-0.8-0.3-0.6-0.9l0,0l0,0l0,0v-0.1
				c0-0.1-0.1-0.2-0.2-0.2c-0.2-0.1-0.3,0-0.5,0.1c0,0-0.1,0-0.1,0.1c0,0,0,0-0.1,0.1c0,0-0.1,0-0.1,0.1c-0.1,0.1-0.2,0.2-0.3,0.3
				c-0.1,0.2-0.2,0.4-0.3,0.6c-0.2,0.4-0.5,1.2-0.1,1.6l0,0c0.1,0.2,0.2,0.4,0.4,0.5c0.5,0.3,1.3-0.2,1.7-0.4
				c0.8-0.3,1.7-0.4,2.5-0.7c0.2,0,0.4,0,0.6,0C181.2,109.1,182.4,109.2,183,108.5z"/>
			<path class="st1" d="M235.5,128c-0.1-0.2-0.2-0.3-0.3-0.3c-0.6,1.4-0.4,3-0.8,4.5c-0.5,1.5-1.6,2.3-2.7,3.3
				c-1.5,1.3-1.7,3-1.5,4.9c0.1,0.5,0.2,1.1,0.2,1.6c0.3,1.6,0.7,3.2,0.7,4.6c0,0.6-0.1,1.2-0.2,1.8c-0.1,0.6-0.4,1.3,0.3,0.7
				c1.7-1.5,1.9-3.5,2-5.6c0.1-1.4,0.3-2.8,0.6-4.2c0.1-0.5,0.2-1.1,0.4-1.6c0.3-1.4,1.2-2.7,1.6-4.1
				C236.3,131.6,236,129.7,235.5,128z"/>
			<path class="st1" d="M216.2,183.5c-0.5,1.3-1.6,1.9-2.2,3.1c-0.6,1,0.9,0.3,1.4,0.1c0.9-0.4,1.7-0.9,2.4-1.4
				c1.1-0.9,1.8-2,2.2-3.3c0.4-1.2,0.8-2.3,1.4-3.4c0.7-1.1,1.5-2.1,2-3.2c0.2-0.4,1.2-4.5,0.9-5.5c-1.9,1.5-2.3,4.1-3.5,6.1
				c-0.5,0.9-1.2,1.7-1.9,2.4c-0.5,0.4-1.5,0.9-1.9,1.6c-0.1,0.3-0.1,0.7-0.1,1.1c-0.1,0.7-0.2,1.4-0.6,2.1
				C216.3,183.3,216.3,183.4,216.2,183.5z"/>
			<path class="st1" d="M181.8,148.7c0.3-0.5,0.9-1.1,0.8-1.7c0-0.1-0.2-0.1-0.3-0.1c-0.6,0.5-1,1.2-1.5,1.9c-0.7,1-1.5,1.9-2,3
				c-0.9,1.8-1.4,5.2-0.6,7.1c0.3,0.6,1.1,0.4,1-0.3c-0.5-2.4-0.1-5.2,1-7.3C180.7,150.3,181.3,149.5,181.8,148.7z"/>
			<path class="st1" d="M208.7,168.1c-0.1,0-0.1,0-0.2,0c-0.2,0-0.4,0-0.6,0c-0.5,0.1-1,0.2-1.6,0.2c-0.3-0.1-0.6-0.4-0.3-0.7
				c0.2-0.2,0.1-0.4,0-0.5c-1.3,0.3-2.5,1.2-3.8,1.6c-1.2,0.3-2.4,0.4-3.4,1.1c-0.6,0.4-1.2,1.1-1.5,1.8c-0.1,0.2-0.3,0.7-0.3,1.2
				c0.2,0,0.4,0,0.7-0.2c0.1,0,0.1-0.1,0.1-0.1c0.1-0.2,0.2-0.5,0.4-0.7c0.1-0.1,0.2-0.1,0.3-0.2c0,0,0-0.1,0.1-0.1l0.1-0.1
				c0.1-0.1,0.2-0.1,0.3-0.1c0,0,0.1,0,0.1-0.1c0.5-0.3,1.1-0.5,1.6-0.7l0,0c0.1,0,0.2-0.1,0.3-0.1c0,0,0,0,0.1,0
				c0.9-0.3,2.3-0.8,3.3-0.6c0.2,0,0.4-0.1,0.7-0.1c0.5,0,0.9,0,1.4,0c0.6,0,1.2,0.1,1.8-0.1c0.2,0,0.8-0.3,0.9-0.6
				c0.1-0.1,0.1-0.2,0.1-0.3C209.1,168.4,208.9,168.2,208.7,168.1z"/>
			<path class="st1" d="M233,94.6c0-0.1-0.1-0.2-0.1-0.2c-0.2-0.3-0.6-0.5-0.8-0.8c-0.2-0.4-0.5-0.8-0.7-1.2
				c-0.1-0.1-0.1-0.2-0.2-0.3c-0.1-0.2-0.3-0.4-0.5-0.6c0-0.1-0.1-0.1-0.1-0.1c-0.2,0-0.5-0.1-0.7-0.1c-0.1,0-0.1,0-0.2,0
				c-0.5-0.1-1.1-0.2-1.6-0.3c-0.8-0.1-1.7-0.1-2.5,0.1c-0.7,0.2-1.4,0.5-1.8,1.1c-0.1,0.1-0.1,0.2-0.2,0.3c-0.1,0-0.1,0-0.2,0
				c-0.4,0-0.8,0.1-1.2,0.1c-0.5,0.1-1.3,0.2-1.4,0.8c-0.2,0-0.3,0-0.5,0.1c-0.1,0-0.3,0.1-0.5,0.1c-0.1,0.1-0.3,0.2-0.4,0.3
				c-0.5,0-1.1,0.1-1.6-0.1c-0.5-0.1-1-0.2-1.5,0s-1.1,0.3-1.5,0.6c-0.4,0.3-1.1,0.5-1.4,0.9c-0.1,0.1-0.1,0.1-0.1,0.1
				c-0.1,0.1-0.2,0.1-0.3,0.2c-0.1-0.1-0.2,0-0.3,0.1v0.1c0,0-0.1,0-0.1,0.1c-0.2,0.2-0.3,0.6-0.3,1c0.1,0.6,0.5,1.3,1.1,1.6
				c0.1,0.3,0.2,0.5,0.6,0.6c0.7,0.3,1.4,0.1,2.2-0.2c0.9-0.3,1.9-0.7,2.9-0.7c0.9,0,1.9,0,2.8-0.2c0.7-0.1,1.4-0.5,1.9-1
				c0.2-0.2,0.4-0.4,0.6-0.5c0.1,0,0.2,0,0.2-0.1c0.4-0.1,0.7,0,1,0.1c0.4,0.1,0.9,0.4,1.3,0.2c0.4-0.3,0.2-0.6,0.3-1
				c0-0.2,0.1-0.4,0.2-0.4c0,0,0.1,0,0.1,0.1c0.1,0.1,0.2,0,0.2-0.1c0.2,0.7,1.1,0.8,1.7,0.6c0.6-0.1,1.1-0.2,1.7-0.1
				c0.6,0.1,1,0.5,1.5,0.8c0.2,0.1,0.6,0.4,0.9,0.5c0.1,0,0.2,0,0.3-0.1l0,0c0,0,0.1-0.1,0.1-0.2v-0.1c0.1-0.5,0-1-0.4-1.4
				c-0.1-0.2-0.2-0.3-0.3-0.5C233,94.7,233,94.6,233,94.6z M215.3,97.4L215.3,97.4L215.3,97.4L215.3,97.4z M221.2,95.8L221.2,95.8
				L221.2,95.8L221.2,95.8L221.2,95.8z M224.5,95.7L224.5,95.7L224.5,95.7L224.5,95.7z M225.5,95.9L225.5,95.9c0.1,0,0.1,0,0.1,0
				H225.5z M228,92.6L228,92.6L228,92.6L228,92.6z"/>
		</g>
	</g>
</g>
</svg>
