<?xml version="1.0" encoding="utf-8"?>
<!-- Generator: Adobe Illustrator 22.1.0, SVG Export Plug-In . SVG Version: 6.00 Build 0)  -->
<svg version="1.1" id="Layer_1" xmlns="http://www.w3.org/2000/svg" xmlns:xlink="http://www.w3.org/1999/xlink" x="0px" y="0px"
	 viewBox="0 0 1792 1792" style="enable-background:new 0 0 1792 1792;" xml:space="preserve">
<style type="text/css">
	.st0{fill:#FFFFFF;}
</style>
<g>
	<path class="st0" d="M177.1,690.1c-5.4,5.4-6.5,9.9-6.5,14.9v128c0,5,1.1,9.5,6.5,14.9s9.9,6.5,14.9,6.5h1408c5,0,9.5-1.1,14.9-6.5
		c5.4-5.4,6.5-9.9,6.5-14.9V705c0-5-1.1-9.5-6.5-14.9c-5.4-5.4-9.9-6.5-14.9-6.5H192C187,683.5,182.5,684.6,177.1,690.1z"/>
	<path class="st0" d="M192,1366.5h1408c5,0,9.5-1.1,14.9-6.5c5.4-5.4,6.5-9.9,6.5-14.9v-128c0-5-1.1-9.5-6.5-14.9
		c-5.4-5.4-9.9-6.5-14.9-6.5H192c-5,0-9.5,1.1-14.9,6.5c-5.4,5.4-6.5,9.9-6.5,14.9v128c0,5,1.1,9.5,6.5,14.9
		C182.5,1365.4,187,1366.5,192,1366.5z"/>
	<path class="st0" d="M1600,171.5H192c-5,0-9.5,1.1-14.9,6.5s-6.5,9.9-6.5,14.9v128c0,5,1.1,9.5,6.5,14.9s9.9,6.5,14.9,6.5h1408
		c5,0,9.5-1.1,14.9-6.5c5.4-5.4,6.5-9.9,6.5-14.9V193c0-5-1.1-9.5-6.5-14.9C1609.5,172.6,1605,171.5,1600,171.5z"/>
</g>
</svg>
