<?xml version="1.0" encoding="utf-8"?>
<!-- Generator: Adobe Illustrator 22.1.0, SVG Export Plug-In . SVG Version: 6.00 Build 0)  -->
<svg version="1.1" id="Layer_1" xmlns="http://www.w3.org/2000/svg" xmlns:xlink="http://www.w3.org/1999/xlink" x="0px" y="0px"
	 viewBox="0 0 170.2 66.4" style="enable-background:new 0 0 170.2 66.4;" xml:space="preserve">
<style type="text/css">
	.st0{fill:#FFFFFF;}
</style>
<g>
	<polygon class="st0" points="148.9,65.4 142.3,61.7 157.7,33.8 142.3,5.9 148.9,2.2 166.4,33.8 	"/>
	<g>
		<path class="st0" d="M40.4,28.7c0,14-5.8,23.7-14.3,23.7c-3.4,0-6.5-1.6-8.1-3l-1.8,10.1L3.8,64.2L12,17.6h11.7L23.2,20
			c1.6-1.2,4.1-3.1,7.5-3.1C36.9,16.9,40.4,20.9,40.4,28.7z M28.7,30.6c0-2.8-0.7-4.1-2.8-4.1c-1.5,0-3.3,1-4.1,1.6L19.5,41
			c1.1,1,2.2,1.8,4.1,1.8C26.4,42.8,28.7,37.8,28.7,30.6z"/>
		<path class="st0" d="M75.3,30.6c0,3-0.5,5.8-1,7.4H54.6c-0.3,3.8,2.3,5.4,5.5,5.4c3,0,5-0.5,8.2-2l3.2,7.7
			c-4.2,2.1-8.2,3.2-12.8,3.2c-9.5,0-14.7-5.9-14.7-14.8c0-11.7,7.1-20.7,17.6-20.7C71,16.9,75.3,22.4,75.3,30.6z M65.3,30.7
			c0.1-3.4-1-5.2-4.4-5.2c-2.7,0-4.2,1.8-5.1,5.2H65.3z"/>
		<path class="st0" d="M101.5,41.2l-3.2,10c-2,0.8-4.5,1.2-6.9,1.2c-6.2,0-9-2.3-9-7.6c0-1,0.1-2.1,0.3-3.2l2.6-14.8h-4.9l1.6-9.1
			h4.9L88.3,9l12.5-4.6l-2.3,13.2h7.1l-1.6,9.1h-7.1l-2.1,12.3c-0.1,0.5-0.1,0.9-0.1,1.2c0,1.6,0.8,2.1,2.7,2.1
			C98.7,42.5,100.4,41.9,101.5,41.2z"/>
		<path class="st0" d="M138.4,30.6c0,3-0.5,5.8-1,7.4h-19.6c-0.3,3.8,2.3,5.4,5.5,5.4c3,0,5-0.5,8.2-2l3.2,7.7
			c-4.2,2.1-8.2,3.2-12.8,3.2c-9.5,0-14.7-5.9-14.7-14.8c0-11.7,7.1-20.7,17.6-20.7C134.2,16.9,138.4,22.4,138.4,30.6z M128.4,30.7
			c0.1-3.4-1-5.2-4.4-5.2c-2.7,0-4.2,1.8-5.1,5.2H128.4z"/>
	</g>
</g>
</svg>
