<?xml version="1.0" encoding="utf-8"?>
<!-- Generator: Adobe Illustrator 22.1.0, SVG Export Plug-In . SVG Version: 6.00 Build 0)  -->
<svg version="1.1" id="Layer_1" xmlns="http://www.w3.org/2000/svg" xmlns:xlink="http://www.w3.org/1999/xlink" x="0px" y="0px"
	 viewBox="0 0 350 370.4" style="enable-background:new 0 0 350 370.4;" xml:space="preserve">
<style type="text/css">
	.st0{fill:#086CA0;}
</style>
<g>
	<g>
		<polygon class="st0" points="159.3,345.8 152.7,342.1 168.2,314.2 152.7,286.3 159.3,282.6 176.8,314.2 		"/>
		<g>
			<path class="st0" d="M50.9,309.1c0,14-5.8,23.7-14.3,23.7c-3.4,0-6.5-1.6-8.1-3l-1.8,10.1l-12.5,4.7l8.2-46.6h11.7l-0.4,2.4
				c1.6-1.2,4.1-3.1,7.5-3.1C47.3,297.3,50.9,301.3,50.9,309.1z M39.1,311c0-2.8-0.7-4.1-2.8-4.1c-1.5,0-3.3,1-4.1,1.6l-2.3,12.9
				c1.1,1,2.2,1.8,4.1,1.8C36.9,323.2,39.1,318.2,39.1,311z"/>
			<path class="st0" d="M85.7,311c0,3-0.5,5.8-1,7.4H65c-0.3,3.8,2.3,5.4,5.5,5.4c3,0,5-0.5,8.2-2l3.2,7.7
				c-4.2,2.1-8.2,3.2-12.8,3.2c-9.5,0-14.7-5.9-14.7-14.8c0-11.7,7.1-20.7,17.6-20.7C81.5,297.3,85.7,302.8,85.7,311z M75.7,311.1
				c0.1-3.4-1-5.2-4.4-5.2c-2.7,0-4.2,1.8-5.1,5.2H75.7z"/>
			<path class="st0" d="M111.9,321.6l-3.2,10c-2,0.8-4.5,1.2-6.9,1.2c-6.2,0-9-2.3-9-7.6c0-1,0.1-2.1,0.3-3.2l2.6-14.8h-4.9l1.6-9.1
				h4.9l1.5-8.6l12.5-4.6l-2.3,13.2h7.1l-1.6,9.1h-7.1l-2.1,12.3c-0.1,0.5-0.1,0.9-0.1,1.2c0,1.6,0.8,2.1,2.7,2.1
				C109.1,322.9,110.8,322.3,111.9,321.6z"/>
			<path class="st0" d="M148.9,311c0,3-0.5,5.8-1,7.4h-19.6c-0.3,3.8,2.3,5.4,5.5,5.4c3,0,5-0.5,8.2-2l3.2,7.7
				c-4.2,2.1-8.2,3.2-12.8,3.2c-9.5,0-14.7-5.9-14.7-14.8c0-11.7,7.1-20.7,17.6-20.7C144.6,297.3,148.9,302.8,148.9,311z
				 M138.9,311.1c0.1-3.4-1-5.2-4.4-5.2c-2.7,0-4.2,1.8-5.1,5.2H138.9z"/>
		</g>
		<g>
			<path class="st0" d="M215.2,332.1h-30.9c1.7-12,8-19.3,19.9-23.3c3.9-1.3,5.2-2.4,5.2-4.2c0-1.5-1.2-2.3-4.6-2.3
				c-3.8,0-7.6,1.2-11,2.9l-3.5-7.8c3.6-2,8.6-4,15.2-4c9.5,0,14.5,3.8,14.5,10.1c0,7.1-4.9,9.8-12.4,12.5
				c-4.7,1.7-9.2,3.5-10.8,7.4h19.9L215.2,332.1z"/>
			<path class="st0" d="M242.9,293.4c9,0,15.3,5.8,15.3,15.9c0,12.4-7.9,23.4-19.8,23.4c-9,0-15.3-5.8-15.3-15.9
				C223.1,304.4,231,293.4,242.9,293.4z M242,302.5c-5.3,0-8,7.5-8,14.1c0,4.5,2,7,5.4,7c5.3,0,8-7.5,8-14.1
				C247.4,305,245.4,302.5,242,302.5z"/>
			<path class="st0" d="M288.7,332.1h-30.9c1.7-12,8-19.3,19.9-23.3c3.9-1.3,5.2-2.4,5.2-4.2c0-1.5-1.2-2.3-4.6-2.3
				c-3.8,0-7.6,1.2-11,2.9l-3.5-7.8c3.6-2,8.6-4,15.2-4c9.5,0,14.5,3.8,14.5,10.1c0,7.1-4.9,9.8-12.4,12.5
				c-4.7,1.7-9.2,3.5-10.8,7.4h19.9L288.7,332.1z"/>
			<path class="st0" d="M316.4,293.4c9,0,15.3,5.8,15.3,15.9c0,12.4-7.9,23.4-19.8,23.4c-9,0-15.3-5.8-15.3-15.9
				C296.7,304.4,304.5,293.4,316.4,293.4z M315.5,302.5c-5.3,0-8,7.5-8,14.1c0,4.5,2,7,5.4,7c5.3,0,8-7.5,8-14.1
				C320.9,305,318.9,302.5,315.5,302.5z"/>
		</g>
	</g>
</g>
</svg>
